
        <svg xmlns="http://www.w3.org/2000/svg" xmlns:xlink="http://www.w3.org/1999/xlink" version="1.1" width="3162.0098614698286" 
        height="531.8149800422634" viewBox="0 0 3162.0098614698286 531.8149800422634">
			<rect fill="#be3144" width="3162.0098614698286" height="531.8149800422634"/>
			<g transform="scale(8.10049307349143) translate(10, 10)">
				<defs id="SvgjsDefs7296"></defs><g id="SvgjsG7297" featureKey="aMgJeN-0" transform="matrix(0.570652186870575,0,0,0.570652186870575,-5.7065217391304355,-5.7065217391304355)" fill="#ffffff"><path xmlns="http://www.w3.org/2000/svg" d="M83.999,33.667c2.758,0,5.001,2.244,5.001,5.001c0,2.756-2.243,4.999-5.001,4.999c-2.757,0-4.999-2.243-4.999-4.999  C79,35.91,81.242,33.667,83.999,33.667 M83.999,32.667c-3.308,0-5.999,2.691-5.999,6.001c0,3.308,2.691,5.999,5.999,5.999  c3.309,0,6.001-2.691,6.001-5.999C90,35.358,87.308,32.667,83.999,32.667L83.999,32.667z"></path><path xmlns="http://www.w3.org/2000/svg" d="M83.999,11C86.757,11,89,13.244,89,16.001C89,18.757,86.757,21,83.999,21C81.242,21,79,18.757,79,16.001  C79,13.244,81.242,11,83.999,11 M83.999,10C80.691,10,78,12.691,78,16.001C78,19.309,80.691,22,83.999,22  C87.308,22,90,19.309,90,16.001C90,12.691,87.308,10,83.999,10L83.999,10z"></path><path xmlns="http://www.w3.org/2000/svg" d="M61.332,56.333c2.758,0,5.001,2.243,5.001,5.001c0,2.757-2.243,4.999-5.001,4.999c-2.757,0-4.999-2.242-4.999-4.999  C56.333,58.576,58.575,56.333,61.332,56.333 M61.332,55.333c-3.308,0-5.999,2.692-5.999,6.001c0,3.308,2.691,5.999,5.999,5.999  c3.309,0,6.001-2.691,6.001-5.999C67.333,58.025,64.641,55.333,61.332,55.333L61.332,55.333z"></path><path xmlns="http://www.w3.org/2000/svg" d="M61.332,79c2.758,0,5.001,2.243,5.001,5.001c0,2.757-2.243,4.999-5.001,4.999c-2.757,0-4.999-2.242-4.999-4.999  C56.333,81.243,58.575,79,61.332,79 M61.332,78c-3.308,0-5.999,2.691-5.999,6.001c0,3.308,2.691,5.999,5.999,5.999  c3.309,0,6.001-2.691,6.001-5.999C67.333,80.691,64.641,78,61.332,78L61.332,78z"></path><path xmlns="http://www.w3.org/2000/svg" d="M61.332,11c2.758,0,5.001,2.244,5.001,5.001c0,2.756-2.243,4.999-5.001,4.999c-2.757,0-4.999-2.243-4.999-4.999  C56.333,13.244,58.575,11,61.332,11 M61.332,10c-3.308,0-5.999,2.691-5.999,6.001c0,3.308,2.691,5.999,5.999,5.999  c3.309,0,6.001-2.691,6.001-5.999C67.333,12.691,64.641,10,61.332,10L61.332,10z"></path><path xmlns="http://www.w3.org/2000/svg" d="M38.666,79c2.757,0,5.001,2.243,5.001,5.001c0,2.757-2.244,4.999-5.001,4.999c-2.756,0-4.999-2.242-4.999-4.999  C33.667,81.243,35.909,79,38.666,79 M38.666,78c-3.308,0-5.999,2.691-5.999,6.001c0,3.308,2.691,5.999,5.999,5.999  c3.309,0,6.001-2.691,6.001-5.999C44.667,80.691,41.974,78,38.666,78L38.666,78z"></path><path xmlns="http://www.w3.org/2000/svg" d="M38.666,33.667c2.757,0,5.001,2.244,5.001,5.001c0,2.756-2.244,4.999-5.001,4.999c-2.756,0-4.999-2.243-4.999-4.999  C33.667,35.91,35.909,33.667,38.666,33.667 M38.666,32.667c-3.308,0-5.999,2.691-5.999,6.001c0,3.308,2.691,5.999,5.999,5.999  c3.309,0,6.001-2.691,6.001-5.999C44.667,35.358,41.974,32.667,38.666,32.667L38.666,32.667z"></path><path xmlns="http://www.w3.org/2000/svg" d="M38.666,11c2.757,0,5.001,2.244,5.001,5.001c0,2.756-2.244,4.999-5.001,4.999c-2.756,0-4.999-2.243-4.999-4.999  C33.667,13.244,35.909,11,38.666,11 M38.666,10c-3.308,0-5.999,2.691-5.999,6.001c0,3.308,2.691,5.999,5.999,5.999  c3.309,0,6.001-2.691,6.001-5.999C44.667,12.691,41.974,10,38.666,10L38.666,10z"></path><path xmlns="http://www.w3.org/2000/svg" d="M15.999,56.333c2.757,0,5.001,2.243,5.001,5.001c0,2.757-2.244,4.999-5.001,4.999c-2.756,0-4.999-2.242-4.999-4.999  C11,58.576,13.243,56.333,15.999,56.333 M15.999,55.333c-3.308,0-5.999,2.692-5.999,6.001c0,3.308,2.691,5.999,5.999,5.999  c3.309,0,6.001-2.691,6.001-5.999C22,58.025,19.308,55.333,15.999,55.333L15.999,55.333z"></path><path xmlns="http://www.w3.org/2000/svg" d="M15.999,79C18.756,79,21,81.243,21,84.001C21,86.758,18.756,89,15.999,89C13.243,89,11,86.758,11,84.001  C11,81.243,13.243,79,15.999,79 M15.999,78C12.691,78,10,80.691,10,84.001C10,87.309,12.691,90,15.999,90  C19.308,90,22,87.309,22,84.001C22,80.691,19.308,78,15.999,78L15.999,78z"></path><path xmlns="http://www.w3.org/2000/svg" d="M84.5,78.025V67.308c3.074-0.256,5.5-2.835,5.5-5.974c0-3.309-2.692-6.001-6.001-6.001c-1.474,0-2.823,0.537-3.869,1.423  L65.91,42.537c0.886-1.045,1.423-2.395,1.423-3.869c0-3.31-2.692-6.001-6.001-6.001c-3.308,0-5.999,2.691-5.999,6.001  c0,1.474,0.537,2.824,1.423,3.87l-14.22,14.219c-1.046-0.886-2.396-1.423-3.871-1.423c-1.474,0-2.824,0.537-3.87,1.423  L20.577,42.537C21.463,41.492,22,40.142,22,38.667c0-3.141-2.426-5.72-5.501-5.976V21.975C19.574,21.719,22,19.14,22,16.001  C22,12.691,19.308,10,15.999,10C12.691,10,10,12.691,10,16.001c0,3.139,2.425,5.718,5.499,5.974v10.717  C12.425,32.947,10,35.527,10,38.667c0,3.308,2.691,5.999,5.999,5.999c1.475,0,2.825-0.537,3.871-1.422l14.22,14.219  c-0.886,1.046-1.423,2.396-1.423,3.871c0,3.308,2.691,5.999,5.999,5.999c3.309,0,6.001-2.691,6.001-5.999  c0-1.475-0.537-2.825-1.423-3.871l14.22-14.219c1.045,0.885,2.395,1.422,3.869,1.422s2.825-0.537,3.871-1.423l14.22,14.219  C78.537,58.509,78,59.859,78,61.334c0,3.139,2.426,5.719,5.5,5.974v10.718C80.426,78.28,78,80.86,78,84.001  C78,87.309,80.691,90,83.999,90C87.308,90,90,87.309,90,84.001C90,80.86,87.574,78.281,84.5,78.025z"></path></g><g id="SvgjsG7298" featureKey="8L6ael-0" transform="matrix(0.8392976522445679,0,0,0.8392976522445679,65.32856186944574,3.5588841145191523)" fill="#ffffff"><path d="M0.8 20 l0 -15.6 l11.98 0 l0 3.88 l-7.98 0 l0 2.24 l5.62 0 l0 3.62 l-5.62 0 l0 2 l7.98 0 l0 3.86 l-11.98 0 z M24.502000000000002 20.3 c-2.26 0 -4.2 -0.8 -5.82 -2.38 c-1.64 -1.58 -2.46 -3.5 -2.46 -5.72 s0.82 -4.14 2.46 -5.72 c1.62 -1.58 3.56 -2.38 5.82 -2.38 c2.28 0 4.24 0.8 5.86 2.38 c1.22 1.18 1.98 2.56 2.26 4.1 l-4.18 0 c-0.2 -0.52 -0.52 -1 -0.92 -1.4 c-0.82 -0.82 -1.82 -1.22 -3.02 -1.22 c-1.18 0 -2.18 0.42 -3 1.24 s-1.24 1.82 -1.24 3 s0.42 2.18 1.24 3 s1.82 1.24 3 1.24 c1.2 0 2.2 -0.42 3.02 -1.24 c0.56 -0.56 0.92 -1.18 1.1 -1.92 l4.08 0 c-0.22 1.78 -0.98 3.32 -2.34 4.64 c-1.62 1.58 -3.58 2.38 -5.86 2.38 z M44.424 20.3 c-2.26 0 -4.2 -0.8 -5.82 -2.38 c-1.64 -1.58 -2.46 -3.5 -2.46 -5.72 s0.82 -4.14 2.46 -5.72 c1.62 -1.58 3.56 -2.38 5.82 -2.38 c2.28 0 4.24 0.8 5.86 2.38 s2.42 3.5 2.42 5.72 s-0.8 4.14 -2.42 5.72 s-3.58 2.38 -5.86 2.38 z M44.424 16.44 c1.2 0 2.2 -0.42 3.02 -1.24 s1.22 -1.82 1.22 -3 s-0.4 -2.2 -1.22 -3.02 s-1.82 -1.22 -3.02 -1.22 c-1.18 0 -2.18 0.42 -3 1.24 s-1.24 1.82 -1.24 3 s0.42 2.18 1.24 3 s1.82 1.24 3 1.24 z M56.146 20 l0 -15.6 l4.02 0 l4.5 10.68 l4.52 -10.68 l4.02 0 l0 15.6 l-3.98 0 l0 -7.34 l-3.24 7.34 l-2.62 0 l-3.24 -7.34 l0 7.34 l-3.98 0 z M76.648 20 l0 -15.6 l4.02 0 l4.5 10.68 l4.52 -10.68 l4.02 0 l0 15.6 l-3.98 0 l0 -7.34 l-3.24 7.34 l-2.62 0 l-3.24 -7.34 l0 7.34 l-3.98 0 z M97.14999999999999 20 l0 -15.6 l11.98 0 l0 3.88 l-7.98 0 l0 2.24 l5.62 0 l0 3.62 l-5.62 0 l0 2 l7.98 0 l0 3.86 l-11.98 0 z M112.57199999999999 20 l0 -15.6 l6.88 0 c1.96 0 3.48 0.5 4.54 1.5 c1.06 1.02 1.58 2.28 1.58 3.74 c0 1.54 -0.52 2.82 -1.58 3.82 c-0.34 0.32 -0.72 0.58 -1.14 0.8 l3.12 5.74 l-3.78 0 l-2.74 -5.02 l-2.88 0 l0 5.02 l-4 0 z M116.57199999999999 11.78 l2.66 0 c1.54 0 2.3 -0.7 2.3 -2.12 c0 -0.6 -0.18 -1.08 -0.56 -1.48 s-0.96 -0.58 -1.74 -0.58 l-2.66 0 l0 4.18 z M137.694 20.3 c-2.26 0 -4.2 -0.8 -5.82 -2.38 c-1.64 -1.58 -2.46 -3.5 -2.46 -5.72 s0.82 -4.14 2.46 -5.72 c1.62 -1.58 3.56 -2.38 5.82 -2.38 c2.28 0 4.24 0.8 5.86 2.38 c1.22 1.18 1.98 2.56 2.26 4.1 l-4.18 0 c-0.2 -0.52 -0.52 -1 -0.92 -1.4 c-0.82 -0.82 -1.82 -1.22 -3.02 -1.22 c-1.18 0 -2.18 0.42 -3 1.24 s-1.24 1.82 -1.24 3 s0.42 2.18 1.24 3 s1.82 1.24 3 1.24 c1.2 0 2.2 -0.42 3.02 -1.24 c0.56 -0.56 0.92 -1.18 1.1 -1.92 l4.08 0 c-0.22 1.78 -0.98 3.32 -2.34 4.64 c-1.62 1.58 -3.58 2.38 -5.86 2.38 z M149.33599999999998 20 l0 -15.6 l11.98 0 l0 3.88 l-7.98 0 l0 2.24 l5.62 0 l0 3.62 l-5.62 0 l0 2 l7.98 0 l0 3.86 l-11.98 0 z M173.6 20 l0 -15.6 l4 0 l0 15.6 l-4 0 z M181.042 20 l0 -15.6 l3.4 0 l6.96 8.72 l0 -8.72 l3.98 0 l0 15.6 l-3.38 0 l-6.96 -8.7 l0 8.7 l-4 0 z M203.684 20 l0 -11.72 l-4.86 0 l0 -3.88 l13.72 0 l0 3.88 l-4.86 0 l0 11.72 l-4 0 z M215.98600000000002 20 l0 -15.6 l11.98 0 l0 3.88 l-7.98 0 l0 2.24 l5.62 0 l0 3.62 l-5.62 0 l0 2 l7.98 0 l0 3.86 l-11.98 0 z M239.68800000000002 20.3 c-2.26 0 -4.2 -0.8 -5.82 -2.38 c-1.64 -1.58 -2.46 -3.5 -2.46 -5.72 s0.82 -4.14 2.46 -5.72 c1.62 -1.58 3.56 -2.38 5.82 -2.38 c2.28 0 4.24 0.8 5.86 2.38 c1.22 1.18 1.98 2.56 2.26 4.1 l-4.18 0 c-0.2 -0.52 -0.52 -1 -0.92 -1.4 c-0.82 -0.82 -1.82 -1.22 -3.02 -1.22 c-1.18 0 -2.18 0.42 -3 1.24 s-1.24 1.82 -1.24 3 s0.42 2.18 1.24 3 s1.82 1.24 3 1.24 c1.2 0 2.2 -0.42 3.02 -1.24 l0.24 -0.26 l-3.8 0 l0.02 -3.02 l8.72 0 l0 1.36 c-0.22 1.78 -0.98 3.32 -2.34 4.64 c-1.62 1.58 -3.58 2.38 -5.86 2.38 z M251.33 20 l0 -15.6 l6.88 0 c1.96 0 3.48 0.5 4.54 1.5 c1.06 1.02 1.58 2.28 1.58 3.74 c0 1.54 -0.52 2.82 -1.58 3.82 c-0.34 0.32 -0.72 0.58 -1.14 0.8 l3.12 5.74 l-3.78 0 l-2.74 -5.02 l-2.88 0 l0 5.02 l-4 0 z M255.33 11.78 l2.66 0 c1.54 0 2.3 -0.7 2.3 -2.12 c0 -0.6 -0.18 -1.08 -0.56 -1.48 s-0.96 -0.58 -1.74 -0.58 l-2.66 0 l0 4.18 z M268.172 20 l6.32 -15.6 l3.96 0 l6.3 15.6 l-4.36 0 l-1.26 -3.48 l-5.3 0 l-1.3 3.48 l-4.36 0 z M275.072 13.280000000000001 l2.78 -0.02 l-1.38 -3.74 z M293.05400000000003 20 l0 -11.72 l-4.86 0 l0 -3.88 l13.72 0 l0 3.88 l-4.86 0 l0 11.72 l-4 0 z M305.356 20 l0 -15.6 l4 0 l0 15.6 l-4 0 z M321.078 20.3 c-2.26 0 -4.2 -0.8 -5.82 -2.38 c-1.64 -1.58 -2.46 -3.5 -2.46 -5.72 s0.82 -4.14 2.46 -5.72 c1.62 -1.58 3.56 -2.38 5.82 -2.38 c2.28 0 4.24 0.8 5.86 2.38 s2.42 3.5 2.42 5.72 s-0.8 4.14 -2.42 5.72 s-3.58 2.38 -5.86 2.38 z M321.078 16.44 c1.2 0 2.2 -0.42 3.02 -1.24 s1.22 -1.82 1.22 -3 s-0.4 -2.2 -1.22 -3.02 s-1.82 -1.22 -3.02 -1.22 c-1.18 0 -2.18 0.42 -3 1.24 s-1.24 1.82 -1.24 3 s0.42 2.18 1.24 3 s1.82 1.24 3 1.24 z M332.8 20 l0 -15.6 l3.4 0 l6.96 8.72 l0 -8.72 l3.98 0 l0 15.6 l-3.38 0 l-6.96 -8.7 l0 8.7 l-4 0 z M357.222 20.3 c-1.94 0 -3.52 -0.42 -4.76 -1.28 s-1.86 -2.02 -1.86 -3.52 l0 -0.18 l-0.02 -0.8 l3.92 0 l0 0.9 c0 0.34 0.24 0.66 0.7 0.96 s1.1 0.46 1.94 0.46 c0.7 0 1.2 -0.1 1.52 -0.28 c0.3 -0.18 0.46 -0.42 0.46 -0.68 c0 -0.32 -0.2 -0.6 -0.58 -0.84 c-0.4 -0.24 -1.1 -0.52 -2.08 -0.86 c-0.62 -0.22 -1.14 -0.4 -1.56 -0.56 s-0.92 -0.4 -1.5 -0.72 c-0.58 -0.3 -1.06 -0.64 -1.4 -0.98 s-0.64 -0.76 -0.9 -1.28 s-0.38 -1.08 -0.38 -1.7 c0 -1.46 0.56 -2.64 1.7 -3.52 s2.6 -1.32 4.4 -1.32 c1.86 0 3.38 0.46 4.58 1.38 s1.8 2.14 1.8 3.66 l0 0.98 l-3.9 0 l0 -0.9 c0 -0.42 -0.2 -0.82 -0.62 -1.16 s-1.02 -0.5 -1.78 -0.5 c-0.62 0 -1.1 0.1 -1.42 0.3 c-0.32 0.22 -0.48 0.46 -0.48 0.76 s0.18 0.54 0.54 0.74 c0.36 0.22 1.04 0.5 2.04 0.84 l1.02 0.36 l1.08 0.44 c0.46 0.22 0.84 0.4 1.12 0.58 s0.6 0.42 0.98 0.72 s0.66 0.62 0.88 0.92 c0.2 0.3 0.38 0.68 0.54 1.1 c0.14 0.42 0.22 0.88 0.22 1.34 c0 1.48 -0.58 2.62 -1.72 3.42 c-1.14 0.82 -2.64 1.22 -4.48 1.22 z"></path></g><g id="SvgjsG7299" featureKey="sloganFeature-0" transform="matrix(0.514475405216217,0,0,0.514475405216217,65.4958138327942,28.293859906475742)" fill="#ffffff"><path d="M12 9.84 l-1.82 0 c-0.1 -2.22 -1.94 -2.92 -3.56 -2.92 c-1.22 0 -3.28 0.34 -3.28 2.52 c0 1.22 0.86 1.62 1.7 1.82 l4.1 0.94 c1.86 0.44 3.26 1.56 3.26 3.84 c0 3.4 -3.16 4.34 -5.62 4.34 c-2.66 0 -3.7 -0.8 -4.34 -1.38 c-1.22 -1.1 -1.46 -2.3 -1.46 -3.64 l1.82 0 c0 2.6 2.12 3.36 3.96 3.36 c1.4 0 3.76 -0.36 3.76 -2.42 c0 -1.5 -0.7 -1.98 -3.06 -2.54 l-2.94 -0.68 c-0.94 -0.22 -3.06 -0.88 -3.06 -3.38 c0 -2.24 1.46 -4.44 4.94 -4.44 c5.02 0 5.52 3 5.6 4.58 z M28.992 18.28 l0 1.72 l-10.6 0 l0 -14.36 l10.46 0 l0 1.72 l-8.52 0 l0 4.4 l7.86 0 l0 1.72 l-7.86 0 l0 4.8 l8.66 0 z M42.884 15.82 l-5.76 0 l-1.5 4.18 l-2 0 l5.4 -14.36 l2.2 0 l5.2 14.36 l-2.12 0 z M37.724000000000004 14.1 l4.46 0 l-2.12 -6.32 l-0.04 0 z M65.236 20 l-1.88 0 l0 -8.48 c0 -0.42 0.04 -2.24 0.04 -3.58 l-0.04 0 l-4.04 12.06 l-1.92 0 l-4.04 -12.04 l-0.04 0 c0 1.32 0.04 3.14 0.04 3.56 l0 8.48 l-1.88 0 l0 -14.36 l2.78 0 l4.1 12.14 l0.04 0 l4.08 -12.14 l2.76 0 l0 14.36 z M73.468 5.640000000000001 l0 12.64 l7.28 0 l0 1.72 l-9.22 0 l0 -14.36 l1.94 0 z M96.78 18.28 l0 1.72 l-10.6 0 l0 -14.36 l10.46 0 l0 1.72 l-8.52 0 l0 4.4 l7.86 0 l0 1.72 l-7.86 0 l0 4.8 l8.66 0 z M113.132 9.84 l-1.82 0 c-0.1 -2.22 -1.94 -2.92 -3.56 -2.92 c-1.22 0 -3.28 0.34 -3.28 2.52 c0 1.22 0.86 1.62 1.7 1.82 l4.1 0.94 c1.86 0.44 3.26 1.56 3.26 3.84 c0 3.4 -3.16 4.34 -5.62 4.34 c-2.66 0 -3.7 -0.8 -4.34 -1.38 c-1.22 -1.1 -1.46 -2.3 -1.46 -3.64 l1.82 0 c0 2.6 2.12 3.36 3.96 3.36 c1.4 0 3.76 -0.36 3.76 -2.42 c0 -1.5 -0.7 -1.98 -3.06 -2.54 l-2.94 -0.68 c-0.94 -0.22 -3.06 -0.88 -3.06 -3.38 c0 -2.24 1.46 -4.44 4.94 -4.44 c5.02 0 5.52 3 5.6 4.58 z M129.804 9.84 l-1.82 0 c-0.1 -2.22 -1.94 -2.92 -3.56 -2.92 c-1.22 0 -3.28 0.34 -3.28 2.52 c0 1.22 0.86 1.62 1.7 1.82 l4.1 0.94 c1.86 0.44 3.26 1.56 3.26 3.84 c0 3.4 -3.16 4.34 -5.62 4.34 c-2.66 0 -3.7 -0.8 -4.34 -1.38 c-1.22 -1.1 -1.46 -2.3 -1.46 -3.64 l1.82 0 c0 2.6 2.12 3.36 3.96 3.36 c1.4 0 3.76 -0.36 3.76 -2.42 c0 -1.5 -0.7 -1.98 -3.06 -2.54 l-2.94 -0.68 c-0.94 -0.22 -3.06 -0.88 -3.06 -3.38 c0 -2.24 1.46 -4.44 4.94 -4.44 c5.02 0 5.52 3 5.6 4.58 z M156.148 12.82 c0 -3.38 -1.88 -5.84 -5 -5.84 s-5 2.46 -5 5.84 s1.88 5.84 5 5.84 s5 -2.46 5 -5.84 z M158.148 12.82 c0 3.1 -1.64 7.56 -7 7.56 s-7 -4.46 -7 -7.56 s1.64 -7.56 7 -7.56 s7 4.46 7 7.56 z M165.95999999999998 13.84 l0 6.16 l-1.94 0 l0 -14.36 l6.64 0 c2.36 0 4.72 0.82 4.72 3.86 c0 2.12 -1.08 2.9 -2 3.44 c0.82 0.34 1.64 0.7 1.72 2.7 l0.12 2.6 c0.02 0.8 0.12 1.1 0.72 1.44 l0 0.32 l-2.38 0 c-0.28 -0.88 -0.34 -3.06 -0.34 -3.6 c0 -1.18 -0.24 -2.56 -2.56 -2.56 l-4.7 0 z M165.95999999999998 7.300000000000001 l0 4.88 l4.5 0 c1.42 0 2.92 -0.36 2.92 -2.48 c0 -2.22 -1.62 -2.4 -2.58 -2.4 l-4.84 0 z M181.652 20 l0 -14.36 l5.82 0 c3.74 0 6.04 2.84 6.04 6.98 c0 3.22 -1.4 7.38 -6.12 7.38 l-5.74 0 z M183.59199999999998 7.300000000000001 l0 11.04 l3.76 0 c2.52 0 4.16 -1.98 4.16 -5.6 s-1.66 -5.44 -4.3 -5.44 l-3.62 0 z M210.12399999999997 18.28 l0 1.72 l-10.6 0 l0 -14.36 l10.46 0 l0 1.72 l-8.52 0 l0 4.4 l7.86 0 l0 1.72 l-7.86 0 l0 4.8 l8.66 0 z M218.17599999999996 13.84 l0 6.16 l-1.94 0 l0 -14.36 l6.64 0 c2.36 0 4.72 0.82 4.72 3.86 c0 2.12 -1.08 2.9 -2 3.44 c0.82 0.34 1.64 0.7 1.72 2.7 l0.12 2.6 c0.02 0.8 0.12 1.1 0.72 1.44 l0 0.32 l-2.38 0 c-0.28 -0.88 -0.34 -3.06 -0.34 -3.6 c0 -1.18 -0.24 -2.56 -2.56 -2.56 l-4.7 0 z M218.17599999999996 7.300000000000001 l0 4.88 l4.5 0 c1.42 0 2.92 -0.36 2.92 -2.48 c0 -2.22 -1.62 -2.4 -2.58 -2.4 l-4.84 0 z M244.79999999999995 13.48 l0 6.52 l-1.94 0 l0 -14.36 l9.94 0 l0 1.72 l-8 0 l0 4.4 l7.04 0 l0 1.72 l-7.04 0 z M260.15199999999993 5.640000000000001 l0 12.64 l7.28 0 l0 1.72 l-9.22 0 l0 -14.36 l1.94 0 z M283.9239999999999 12.82 c0 -3.38 -1.88 -5.84 -5 -5.84 s-5 2.46 -5 5.84 s1.88 5.84 5 5.84 s5 -2.46 5 -5.84 z M285.9239999999999 12.82 c0 3.1 -1.64 7.56 -7 7.56 s-7 -4.46 -7 -7.56 s1.64 -7.56 7 -7.56 s7 4.46 7 7.56 z M299.45599999999996 8.1 l-3.32 11.9 l-2.04 0 l-3.74 -14.36 l2.1 0 l2.68 11.68 l0.04 0 l3.22 -11.68 l2.12 0 l3.22 11.68 l0.04 0 l2.68 -11.68 l2.14 0 l-3.78 14.36 l-2.04 0 l-3.28 -11.9 l-0.04 0 z"></path></g>
			</g>
		</svg>
	